<svg width="93" height="27" viewBox="0 0 93 27" fill="none" xmlns="http://www.w3.org/2000/svg">
<path d="M49.7479 0H46.25V26.4286H49.7479V0Z" fill="white"/>
<path d="M61.2823 6.60715C55.4159 6.60715 51.3025 10.7633 51.3025 16.6708C51.3025 22.8841 55.8714 26.4286 60.6887 26.4286C63.9049 26.4286 66.6379 24.8718 67.8664 21.8138V26.3452H71.124V16.6708C71.124 10.6521 67.0796 6.62105 61.2823 6.62105V6.60715ZM61.2408 23.0648C57.4312 23.0648 54.8776 20.3265 54.8776 16.5179C54.8776 12.7093 57.4174 9.97095 61.2408 9.97095C65.0505 9.97095 67.6041 12.7093 67.6041 16.5179C67.6041 20.3265 65.0643 23.0648 61.2408 23.0648Z" fill="white"/>
<path d="M83.1 6.71466C80.1047 6.71466 77.5649 8.07424 76.226 10.5021V0H72.6786V16.4259C72.6786 22.5302 76.7919 26.4286 82.5203 26.4286C88.3867 26.4286 92.5 22.336 92.5 16.4676C92.5 10.2523 87.9311 6.72853 83.1138 6.72853L83.1 6.71466ZM82.5341 23.0851C78.752 23.0851 76.2122 20.3521 76.2122 16.5647C76.2122 12.7773 78.752 10.0442 82.5341 10.0442C86.3438 10.0442 88.8974 12.7773 88.8974 16.5647C88.8974 20.3521 86.3576 23.0851 82.5341 23.0851Z" fill="white"/>
<path d="M39.1892 18.1324V18.5624C39.1892 21.67 37.4639 22.9603 34.9249 22.9603C32.386 22.9603 30.7028 21.6284 30.7028 18.5624V9.91939H39.1331V6.50656H30.7028V0H26.8172V18.5763C26.8172 23.8343 30.0996 26.4286 34.9249 26.4286C39.7643 26.4286 42.7521 23.8343 42.7521 18.5763V18.1462H39.1752L39.1892 18.1324Z" fill="#0AF2D1"/>
<path d="M19.7938 21.4559V16.4694V16.1369C19.5868 10.8457 15.2388 6.60715 9.89691 6.60715C4.43084 6.60715 0 11.0535 0 16.5248C0 21.8715 4.22379 26.2208 9.51042 26.4286H12.9474H14.8385H18.3445C18.3997 26.4286 18.4411 26.4286 18.4963 26.4286C18.5515 26.4286 18.5929 26.4286 18.6482 26.4009C18.7448 26.387 18.8414 26.3593 18.9242 26.3178C19.0623 26.2624 19.1727 26.1931 19.2831 26.0961C19.6144 25.833 19.8214 25.4174 19.8214 24.9603V21.4421L19.7938 21.4559Z" fill="#0AF2D1"/>
</svg>
