<svg width="121" height="35" viewBox="0 0 121 35" fill="none" xmlns="http://www.w3.org/2000/svg">
<path d="M64.8067 0H60.25V34.4286H64.8067V0Z" fill="white"/>
<path d="M79.8326 8.60715C72.1904 8.60715 66.8319 14.0213 66.8319 21.717C66.8319 29.8111 72.7838 34.4286 79.0594 34.4286C83.249 34.4286 86.8094 32.4005 88.4097 28.4169V34.3199H92.6534V21.717C92.6534 13.8765 87.3848 8.62525 79.8326 8.62525V8.60715ZM79.7786 30.0465C74.8157 30.0465 71.4891 26.4793 71.4891 21.5179C71.4891 16.5564 74.7977 12.9892 79.7786 12.9892C84.7415 12.9892 88.0681 16.5564 88.0681 21.5179C88.0681 26.4793 84.7595 30.0465 79.7786 30.0465Z" fill="white"/>
<path d="M108.255 8.74721C104.353 8.74721 101.044 10.5183 99.2998 13.6811V0H94.6786V21.3981C94.6786 29.3501 100.037 34.4286 107.499 34.4286C115.142 34.4286 120.5 29.0971 120.5 21.4523C120.5 13.3558 114.548 8.76528 108.273 8.76528L108.255 8.74721ZM107.517 30.073C102.59 30.073 99.2819 26.5127 99.2819 21.5789C99.2819 16.645 102.59 13.0847 107.517 13.0847C112.48 13.0847 115.807 16.645 115.807 21.5789C115.807 26.5127 112.498 30.073 107.517 30.073Z" fill="white"/>
<path d="M51.0519 23.6211V24.1813C51.0519 28.2296 48.8043 29.9104 45.4968 29.9104C42.1894 29.9104 39.9966 28.1754 39.9966 24.1813V12.922H50.9788V8.47612H39.9966V0H34.9349V24.1994C34.9349 31.049 39.2108 34.4286 45.4968 34.4286C51.8011 34.4286 55.6933 31.049 55.6933 24.1994V23.6391H51.0336L51.0519 23.6211Z" fill="#0AF2D1"/>
<path d="M25.7855 27.9507V21.4547V21.0216C25.5157 14.1287 19.8516 8.60715 12.8927 8.60715C5.77206 8.60715 0 14.3994 0 21.5269C0 28.492 5.50234 34.1579 12.3893 34.4286H16.8666H19.3301H23.8974C23.9693 34.4286 24.0233 34.4286 24.0952 34.4286C24.1671 34.4286 24.2211 34.4286 24.293 34.3925C24.4189 34.3744 24.5447 34.3384 24.6526 34.2842C24.8324 34.212 24.9763 34.1218 25.1202 33.9955C25.5517 33.6527 25.8214 33.1113 25.8214 32.5159V27.9326L25.7855 27.9507Z" fill="#0AF2D1"/>
</svg>
